<svg width="56" height="57" viewBox="0 0 56 57" fill="none" xmlns="http://www.w3.org/2000/svg">
<g clip-path="url(#clip0_16_344)">
<path d="M27.7778 0.555664C32.265 0.555664 34.9509 1.23942 36.6581 2.09199C37.5128 2.51934 38.1197 2.96806 38.5278 3.42746C38.9381 3.88686 39.1966 4.56207 39.1966 4.56207C39.2636 4.73368 39.3081 4.91323 39.3291 5.09626L40.4658 19.7202C40.4808 19.8099 40.4509 19.9552 40.4658 20.0535L40.5983 21.5236C40.6108 21.6565 40.6108 21.7903 40.5983 21.9232C40.5983 28.9745 34.8291 34.7437 27.7778 34.7437C20.7265 34.7437 14.9573 28.9745 14.9573 21.9232V21.5899C14.9569 21.5678 14.9569 21.5457 14.9573 21.5236L16.2265 5.09626C16.2475 4.91323 16.292 4.73368 16.359 4.56207C16.359 4.56207 16.6175 3.88686 17.0278 3.42746C17.4359 2.96592 18.0428 2.5172 18.8975 2.09199C20.6047 1.23729 23.2906 0.555664 27.7778 0.555664ZM27.7778 34.7437C41.8804 34.7437 53.4188 41.3805 53.4188 47.3634V56.1112H2.13676V47.3634C2.13676 41.6796 12.5684 35.4189 25.7073 34.8099C26.3965 34.7645 27.0871 34.7424 27.7778 34.7437ZM27.7778 4.82917C23.718 4.82917 21.6902 5.47019 20.8334 5.89754C20.547 6.04071 20.5128 6.09626 20.4316 6.16464L19.5641 17.1155C21.5299 17.2352 24.2094 17.6497 27.7778 17.6497C31.3462 17.6497 34.0235 17.2352 35.9915 17.1155L35.1239 6.16464C35.0449 6.09626 35.0086 6.04071 34.7222 5.89754C33.8654 5.47019 31.8376 4.82917 27.7778 4.82917ZM29.515 6.96592V9.50438H32.0513V12.9766H29.5128V15.5129H26.0428V12.9745H23.5043V9.50438H26.0428V6.96592H29.5128H29.515ZM34.1881 39.5514L28.7116 51.8377H49.1453V47.3634C49.1453 45.7715 43.6966 41.1091 34.1881 39.5514ZM21.3675 39.5514C11.859 41.1112 6.41027 45.7715 6.41027 47.3634V51.8377H26.844L21.3675 39.5514Z" fill="white"/>
</g>
<defs>
<clipPath id="clip0_16_344">
<rect width="55.5556" height="55.5556" fill="white" transform="translate(0 0.555664)"/>
</clipPath>
</defs>
</svg>
