<svg width="64" height="64" viewBox="0 0 64 64" fill="none" xmlns="http://www.w3.org/2000/svg">
<path fill-rule="evenodd" clip-rule="evenodd" d="M48 9.33333C48 8.97971 47.8595 8.64057 47.6095 8.39052C47.3594 8.14048 47.0203 8 46.6667 8H17.3333C16.9797 8 16.6406 8.14048 16.3905 8.39052C16.1405 8.64057 16 8.97971 16 9.33333V10.6667H9.33333C8.97971 10.6667 8.64057 10.8071 8.39052 11.0572C8.14047 11.3072 8 11.6464 8 12V20C8 21.7681 8.70238 23.4638 9.95262 24.714C11.2029 25.9643 12.8986 26.6667 14.6667 26.6667H16.9107C17.8637 29.3561 19.5176 31.7423 21.7016 33.5787C23.8855 35.415 26.5202 36.6348 29.3333 37.112V45.3333H21.3333C20.9797 45.3333 20.6406 45.4738 20.3905 45.7239C20.1405 45.9739 20 46.313 20 46.6667V54.6667C20 55.0203 20.1405 55.3594 20.3905 55.6095C20.6406 55.8595 20.9797 56 21.3333 56H42.6667C43.0203 56 43.3594 55.8595 43.6095 55.6095C43.8595 55.3594 44 55.0203 44 54.6667V46.6667C44 46.313 43.8595 45.9739 43.6095 45.7239C43.3594 45.4738 43.0203 45.3333 42.6667 45.3333H34.6667V37.112C37.4798 36.6348 40.1145 35.415 42.2984 33.5787C44.4824 31.7423 46.1363 29.3561 47.0893 26.6667H49.3333C51.1014 26.6667 52.7971 25.9643 54.0474 24.714C55.2976 23.4638 56 21.7681 56 20V12C56 11.6464 55.8595 11.3072 55.6095 11.0572C55.3594 10.8071 55.0203 10.6667 54.6667 10.6667H48V9.33333ZM16 21.3333V13.3333H10.6667V20C10.6667 21.0609 11.0881 22.0783 11.8382 22.8284C12.5884 23.5786 13.6058 24 14.6667 24H16V21.3333ZM48 13.3333H53.3333V20C53.3333 21.0609 52.9119 22.0783 52.1618 22.8284C51.4116 23.5786 50.3942 24 49.3333 24H48V13.3333Z" fill="white"/>
</svg>
