<svg width="50" height="50" viewBox="0 0 50 50" fill="none" xmlns="http://www.w3.org/2000/svg">
<path d="M11.8164 30.0066C8.61811 25.4802 7.26654 20.0818 8.00776 14.8035C8.32212 12.5707 9.07319 10.4217 10.2181 8.47913C11.363 6.5366 12.8793 4.83859 14.6804 3.48207C16.4816 2.12555 18.5323 1.13708 20.7154 0.5731C22.8986 0.00911926 25.1714 -0.119327 27.4042 0.195096C36.7792 1.51248 43.3359 10.2127 42.0185 19.5877C41.2792 24.8504 38.4912 29.6619 34.1699 33.1365C31.7695 35.0584 29.0615 36.408 26.4921 37.0115C26.2978 37.0582 26.1288 37.1775 26.0199 37.345C25.9109 37.5125 25.8702 37.7153 25.9062 37.9119L26.3818 40.4881C26.4509 40.8386 26.4 41.2022 26.2372 41.5203C26.1052 41.7739 25.906 41.9864 25.6615 42.1347C25.417 42.2829 25.1365 42.3613 24.8505 42.3611C24.7777 42.3612 24.7049 42.356 24.6328 42.3455L22.8935 42.1013C22.852 42.0956 22.8098 42.1033 22.7731 42.1233C22.7363 42.1434 22.707 42.1747 22.6894 42.2127C21.0566 45.7586 18.2499 48.448 14.6669 49.865C14.4708 49.9425 14.261 49.9795 14.0502 49.9737C13.8394 49.968 13.632 49.9196 13.4404 49.8316C13.2488 49.7435 13.077 49.6176 12.9353 49.4614C12.7937 49.3052 12.6851 49.1219 12.6162 48.9226C12.3398 48.1238 12.7763 47.2556 13.5615 46.9422C16.0129 45.9628 18.0561 44.1753 19.3525 41.8758C19.3689 41.848 19.3782 41.8167 19.3795 41.7845C19.3809 41.7523 19.3743 41.7203 19.3602 41.6913C19.3462 41.6623 19.3253 41.6372 19.2992 41.6183C19.2731 41.5993 19.2428 41.5872 19.2109 41.5828L18.4882 41.4851C18.1101 41.4364 17.7614 41.2555 17.5038 40.9744C17.2955 40.7413 17.1619 40.451 17.1203 40.1411C17.0786 39.8312 17.131 39.5159 17.2705 39.2361L18.4482 36.8699C18.5377 36.6902 18.5545 36.4829 18.4953 36.291C18.436 36.0992 18.3051 35.9375 18.1298 35.8396C15.8261 34.5535 13.5937 32.5193 11.8164 30.0066ZM26.9433 31.6453C27.1399 31.6453 27.3347 31.6082 27.5175 31.5359C31.5468 29.9422 34.9687 26.3894 36.4482 22.2644C36.5203 22.0706 36.5532 21.8645 36.5451 21.6579C36.5369 21.4513 36.4878 21.2484 36.4007 21.0609C36.3135 20.8734 36.19 20.7051 36.0373 20.5657C35.8846 20.4262 35.7058 20.3185 35.5112 20.2487C35.3165 20.179 35.11 20.1485 34.9035 20.1591C34.697 20.1697 34.4947 20.2212 34.3083 20.3106C34.1218 20.4 33.955 20.5255 33.8174 20.6798C33.6798 20.8342 33.5742 21.0143 33.5068 21.2097C32.0908 25.159 28.8906 27.6326 26.3681 28.6316C26.0298 28.7653 25.7488 29.0129 25.5734 29.3316C25.3981 29.6503 25.3394 30.0202 25.4076 30.3775C25.4757 30.7348 25.6664 31.0571 25.9468 31.2889C26.2271 31.5207 26.5795 31.6474 26.9433 31.6472V31.6453Z" fill="white"/>
</svg>
