<svg width="64" height="64" viewBox="0 0 64 64" fill="none" xmlns="http://www.w3.org/2000/svg">
<path d="M16.6667 5.3335C15.8788 5.3335 15.0986 5.48869 14.3706 5.79022C13.6427 6.09175 12.9812 6.5337 12.4241 7.09086C11.8669 7.64801 11.425 8.30944 11.1234 9.0374C10.8219 9.76535 10.6667 10.5456 10.6667 11.3335V52.6802C10.6667 53.4681 10.8219 54.2483 11.1234 54.9763C11.425 55.7042 11.8669 56.3657 12.4241 56.9228C12.9812 57.48 13.6427 57.9219 14.3706 58.2234C15.0986 58.525 15.8788 58.6802 16.6667 58.6802H47.3334C48.1213 58.6802 48.9015 58.525 49.6295 58.2234C50.3574 57.9219 51.0189 57.48 51.576 56.9228C52.1332 56.3657 52.5751 55.7042 52.8767 54.9763C53.1782 54.2483 53.3334 53.4681 53.3334 52.6802V11.3335C53.3336 9.81316 52.7566 8.34944 51.7191 7.23815C50.6815 6.12687 49.2608 5.45089 47.744 5.34683L47.3334 5.3335H16.6667ZM14.6667 42.6668H49.3334V52.6802C49.3334 53.7842 48.4374 54.6802 47.3334 54.6802H16.6667C16.1363 54.6802 15.6276 54.4694 15.2525 54.0944C14.8774 53.7193 14.6667 53.2106 14.6667 52.6802V42.6668ZM43.3307 46.6668H20.6667C20.16 46.667 19.6722 46.8595 19.3019 47.2054C18.9317 47.5514 18.7065 48.025 18.672 48.5305C18.6374 49.0361 18.7961 49.5359 19.1159 49.929C19.4356 50.322 19.8927 50.5791 20.3947 50.6482L20.6667 50.6668H43.3307C43.8372 50.666 44.3245 50.473 44.6943 50.1269C45.0641 49.7807 45.2887 49.3072 45.3229 48.8018C45.3571 48.2965 45.1982 47.797 44.8785 47.4042C44.5587 47.0114 44.1018 46.7545 43.6 46.6855L43.3307 46.6668H20.6667H43.3307ZM16.6667 9.3335H47.3334L47.6054 9.35216C48.0842 9.41789 48.523 9.65478 48.8407 10.019C49.1583 10.3833 49.3334 10.8502 49.3334 11.3335V38.6668H42.6667V32.6535C42.6667 30.9282 41.3547 29.5095 39.6747 29.3388L39.3334 29.3202H24.6667C22.9414 29.3202 21.52 30.6322 21.352 32.3148L21.3334 32.6535V38.6668H14.6667V11.3335C14.6667 10.8031 14.8774 10.2944 15.2525 9.91928C15.6276 9.54421 16.1363 9.3335 16.6667 9.3335ZM32 13.3228C30.2319 13.3228 28.5362 14.0252 27.286 15.2755C26.0358 16.5257 25.3334 18.2214 25.3334 19.9895C25.3334 21.7576 26.0358 23.4533 27.286 24.7035C28.5362 25.9538 30.2319 26.6562 32 26.6562C33.7682 26.6562 35.4638 25.9538 36.7141 24.7035C37.9643 23.4533 38.6667 21.7576 38.6667 19.9895C38.6667 18.2214 37.9643 16.5257 36.7141 15.2755C35.4638 14.0252 33.7682 13.3228 32 13.3228Z" fill="white"/>
</svg>
