<svg width="149" height="32" viewBox="0 0 149 32" fill="none" xmlns="http://www.w3.org/2000/svg">
<path d="M12.3734 7.04V9.17334H10.24V13.44C10.24 15.7973 12.1494 17.7067 14.5067 17.7067C16.864 17.7067 18.7734 15.7973 18.7734 13.44V9.17334H16.64V7.04H19.84C20.1229 7.04 20.3942 7.15239 20.5943 7.35242C20.7943 7.55246 20.9067 7.82377 20.9067 8.10667V13.44C20.9065 14.9525 20.3708 16.4161 19.3946 17.5714C18.4184 18.7266 17.0646 19.499 15.5734 19.7515V21.44C15.5728 22.3143 15.879 23.161 16.4387 23.8326C16.9984 24.5042 17.7761 24.9581 18.6361 25.1151C19.4962 25.2722 20.384 25.1224 21.145 24.6919C21.9059 24.2614 22.4916 23.5775 22.8 22.7595C22.1137 22.4517 21.5577 21.9119 21.2297 21.235C20.9017 20.558 20.8226 19.7872 21.0064 19.0578C21.1902 18.3283 21.6251 17.687 22.2347 17.2463C22.8443 16.8056 23.5897 16.5938 24.34 16.6479C25.0902 16.7021 25.7974 17.0189 26.3374 17.5426C26.8773 18.0663 27.2155 18.7635 27.2926 19.5118C27.3696 20.2601 27.1806 21.0116 26.7588 21.6343C26.3369 22.2571 25.7091 22.7114 24.9856 22.9173C24.6273 24.2995 23.7772 25.5035 22.5947 26.3038C21.4122 27.104 19.9784 27.4456 18.5621 27.2643C17.1458 27.0831 15.8442 26.3916 14.9012 25.3194C13.9583 24.2472 13.4388 22.8679 13.44 21.44V19.7515C11.9487 19.4992 10.5948 18.7269 9.61854 17.5716C8.64228 16.4163 8.10667 14.9526 8.10669 13.44V8.10667C8.10669 7.82377 8.21907 7.55246 8.41911 7.35242C8.61915 7.15239 8.89046 7.04 9.17336 7.04H12.3734Z" fill="url(#paint0_linear_2_42)"/>
<g filter="url(#filter0_i_2_42)">
<circle cx="16" cy="16" r="14.72" stroke="url(#paint1_linear_2_42)" stroke-width="2.56"/>
</g>
<path d="M45.664 9.436V22H43.144V16.654H37.762V22H35.242V9.436H37.762V14.602H43.144V9.436H45.664ZM50.6643 11.47V14.62H54.8943V16.618H50.6643V19.948H55.4343V22H48.1443V9.418H55.4343V11.47H50.6643ZM65.4284 19.606H60.4244L59.5964 22H56.9504L61.4684 9.418H64.4024L68.9204 22H66.2564L65.4284 19.606ZM64.7444 17.59L62.9264 12.334L61.1084 17.59H64.7444ZM73.1292 20.002H77.2692V22H70.6092V9.436H73.1292V20.002ZM87.4209 9.436V11.47H84.0729V22H81.5529V11.47H78.2049V9.436H87.4209ZM99.6816 9.436V22H97.1616V16.654H91.7796V22H89.2596V9.436H91.7796V14.602H97.1616V9.436H99.6816Z" fill="#4270A2"/>
<path d="M101.55 15.7C101.55 14.464 101.826 13.36 102.378 12.388C102.942 11.404 103.704 10.642 104.664 10.102C105.636 9.55 106.722 9.274 107.922 9.274C109.326 9.274 110.556 9.634 111.612 10.354C112.668 11.074 113.406 12.07 113.826 13.342H110.928C110.64 12.742 110.232 12.292 109.704 11.992C109.188 11.692 108.588 11.542 107.904 11.542C107.172 11.542 106.518 11.716 105.942 12.064C105.378 12.4 104.934 12.88 104.61 13.504C104.298 14.128 104.142 14.86 104.142 15.7C104.142 16.528 104.298 17.26 104.61 17.896C104.934 18.52 105.378 19.006 105.942 19.354C106.518 19.69 107.172 19.858 107.904 19.858C108.588 19.858 109.188 19.708 109.704 19.408C110.232 19.096 110.64 18.64 110.928 18.04H113.826C113.406 19.324 112.668 20.326 111.612 21.046C110.568 21.754 109.338 22.108 107.922 22.108C106.722 22.108 105.636 21.838 104.664 21.298C103.704 20.746 102.942 19.984 102.378 19.012C101.826 18.04 101.55 16.936 101.55 15.7ZM123.682 19.606H118.678L117.85 22H115.204L119.722 9.418H122.656L127.174 22H124.51L123.682 19.606ZM122.998 17.59L121.18 12.334L119.362 17.59H122.998ZM135.343 22L132.571 17.104H131.383V22H128.863V9.436H133.579C134.551 9.436 135.379 9.61 136.063 9.958C136.747 10.294 137.257 10.756 137.593 11.344C137.941 11.92 138.115 12.568 138.115 13.288C138.115 14.116 137.875 14.866 137.395 15.538C136.915 16.198 136.201 16.654 135.253 16.906L138.259 22H135.343ZM131.383 15.214H133.489C134.173 15.214 134.683 15.052 135.019 14.728C135.355 14.392 135.523 13.93 135.523 13.342C135.523 12.766 135.355 12.322 135.019 12.01C134.683 11.686 134.173 11.524 133.489 11.524H131.383V15.214ZM142.914 11.47V14.62H147.144V16.618H142.914V19.948H147.684V22H140.394V9.418H147.684V11.47H142.914Z" fill="#307172"/>
<defs>
<filter id="filter0_i_2_42" x="0" y="0" width="32" height="37.12" filterUnits="userSpaceOnUse" color-interpolation-filters="sRGB">
<feFlood flood-opacity="0" result="BackgroundImageFix"/>
<feBlend mode="normal" in="SourceGraphic" in2="BackgroundImageFix" result="shape"/>
<feColorMatrix in="SourceAlpha" type="matrix" values="0 0 0 0 0 0 0 0 0 0 0 0 0 0 0 0 0 0 127 0" result="hardAlpha"/>
<feOffset dy="5.12"/>
<feGaussianBlur stdDeviation="2.56"/>
<feComposite in2="hardAlpha" operator="arithmetic" k2="-1" k3="1"/>
<feColorMatrix type="matrix" values="0 0 0 0 0 0 0 0 0 0 0 0 0 0 0 0 0 0 0.25 0"/>
<feBlend mode="normal" in2="shape" result="effect1_innerShadow_2_42"/>
</filter>
<linearGradient id="paint0_linear_2_42" x1="17.7081" y1="7.04" x2="17.7081" y2="27.3118" gradientUnits="userSpaceOnUse">
<stop stop-color="#4270A2"/>
<stop offset="1" stop-color="#4270A2" stop-opacity="0.62"/>
</linearGradient>
<linearGradient id="paint1_linear_2_42" x1="37.6" y1="-8.49366e-07" x2="-9.6" y2="32" gradientUnits="userSpaceOnUse">
<stop stop-color="#4270A2"/>
<stop offset="1" stop-color="#4270A2" stop-opacity="0"/>
</linearGradient>
</defs>
</svg>
