<svg width="48" height="53" viewBox="0 0 48 53" fill="none" xmlns="http://www.w3.org/2000/svg">
<path d="M20.0888 10.3426V7.42594H22.6687V4.50928H25.2486V7.42594H27.8285V10.3426H25.2486V13.2593H22.6687V10.3426H20.0888Z" fill="white"/>
<path fill-rule="evenodd" clip-rule="evenodd" d="M14.5163 15.836L11.9648 7.66061C11.2734 5.44395 12.2589 2.93561 14.3241 2.19624C16.7221 1.33582 20.6435 0.134155 23.9587 0.134155C27.2739 0.134155 31.1953 1.33582 33.5946 2.19624C35.6585 2.93707 36.644 5.44541 35.9526 7.66061L33.3998 15.836C34.0928 17.612 34.3828 19.5553 34.2437 21.49C34.1046 23.4246 33.5407 25.2895 32.6031 26.9156C31.6655 28.5416 30.3839 29.8776 28.8743 30.8023C27.3648 31.727 25.675 32.2113 23.9581 32.2113C22.2411 32.2113 20.5513 31.727 19.0418 30.8023C17.5322 29.8776 16.2506 28.5416 15.313 26.9156C14.3754 25.2895 13.8115 23.4246 13.6724 21.49C13.5333 19.5553 13.8234 17.612 14.5163 15.836ZM23.9587 3.05082C26.8482 3.05082 30.4459 4.12707 32.8142 4.97582C33.4076 5.18874 33.7559 5.93541 33.5198 6.69082L30.9089 15.0529C26.2819 13.3904 21.6355 13.3904 17.0085 15.0529L14.3976 6.69082C14.1616 5.93541 14.5098 5.18874 15.1032 4.97728C17.4716 4.12707 21.0705 3.05082 23.9587 3.05082ZM16.4693 18.3356H16.4706C16.5391 18.32 16.6064 18.298 16.6718 18.27C21.5401 16.2064 26.3774 16.2064 31.2456 18.27C31.3114 18.2981 31.3792 18.32 31.4481 18.3356C31.746 19.6294 31.7777 20.9831 31.5408 22.2928C31.3039 23.6026 30.8047 24.8336 30.0815 25.8913C29.3583 26.949 28.4303 27.8052 27.3688 28.3944C26.3073 28.9835 25.1406 29.2899 23.9581 29.2899C22.7756 29.2899 21.6088 28.9835 20.5473 28.3944C19.4858 27.8052 18.5578 26.949 17.8346 25.8913C17.1114 24.8336 16.6122 23.6026 16.3753 22.2928C16.1384 20.9831 16.1701 19.6294 16.468 18.3356H16.4693Z" fill="white"/>
<path d="M11.0592 40.9674H8.47931V43.8841H11.0592V46.8008H13.6391V43.8841H16.219V40.9674H13.6391V38.0508H11.0592V40.9674Z" fill="white"/>
<path fill-rule="evenodd" clip-rule="evenodd" d="M33.1444 32.2175C33.1444 32.2175 47.1777 37.1657 47.1777 43.1069V52.6342H0.739647V43.1069C0.739647 37.1657 14.773 32.2175 14.773 32.2175L22.4765 38.3323C22.9107 38.6768 23.4283 38.8617 23.9587 38.8617C24.4891 38.8617 25.0067 38.6768 25.4408 38.3323L33.1444 32.2175ZM14.3602 35.455L20.9931 40.7196C21.8617 41.4093 22.8973 41.7794 23.9587 41.7794C25.0201 41.7794 26.0557 41.4093 26.9243 40.7196L33.5572 35.455C35.4194 36.1928 37.2403 37.0577 39.0098 38.045C40.6816 38.9871 42.2114 40.0327 43.2873 41.0959C44.4495 42.2436 44.5978 42.9261 44.5978 43.1069V49.7175H3.31954V43.1069C3.31954 42.9261 3.46788 42.2436 4.63012 41.0944C5.70594 40.0327 7.23582 38.9871 8.90888 38.0436C10.3994 37.2131 11.9266 36.4694 13.4843 35.8152C13.8068 35.6782 14.1009 35.5586 14.3602 35.4536V35.455Z" fill="white"/>
</svg>
