<svg width="70" height="70" viewBox="0 0 70 70" fill="none" xmlns="http://www.w3.org/2000/svg">
<path d="M66.5176 4.70754C66.546 4.65611 66.5641 4.59954 66.5706 4.54111C66.5771 4.48268 66.5719 4.42353 66.5555 4.3671C66.539 4.31066 66.5115 4.25804 66.4746 4.21228C66.4377 4.16653 66.392 4.12854 66.3404 4.10051L63.0919 2.33082C63.0404 2.30244 62.9838 2.28456 62.9254 2.27822C62.867 2.27189 62.8078 2.27721 62.7515 2.2939C62.6951 2.31059 62.6426 2.3383 62.597 2.37543C62.5515 2.41256 62.5137 2.45837 62.486 2.5102L61.1833 4.88692C56.2582 3.41035 50.8015 5.51035 48.2388 10.2036L54.5333 13.6402C54.0334 14.557 53.9181 15.6349 54.2129 16.6366C54.5076 17.6384 55.1883 18.4821 56.1051 18.9821C57.0219 19.482 58.0997 19.5973 59.1015 19.3026C60.1033 19.0078 60.947 18.3272 61.4469 17.4104L67.7436 20.8425C70.3085 16.1514 69.1305 10.4268 65.2171 7.08535L66.5176 4.70645V4.70754Z" fill="#307172"/>
<path d="M22.1693 47.519H0.984468V69.4181H22.1693V47.519Z" fill="#307172"/>
<path d="M24.5974 58.4643H41.7069C43.1408 58.464 44.5159 57.8946 45.5303 56.8811C46.5446 55.8676 47.1151 54.4929 47.1166 53.059C47.1157 51.625 46.5453 50.2501 45.5308 49.2367C44.5163 48.2232 43.1409 47.6542 41.7069 47.6548H24.5974V58.4643Z" fill="#307172"/>
<path d="M61.4863 62.8491C61.4863 61.6405 60.5074 60.6594 59.2977 60.6594H24.5985V69.416H61.4863V62.848V62.8491Z" fill="#307172"/>
<path d="M48.3285 51.939C48.3302 53.6708 49.0196 55.331 50.2451 56.5547C51.4706 57.7783 53.1319 58.4652 54.8637 58.4643C55.7213 58.4651 56.5707 58.2968 57.3633 57.9693C58.1559 57.6418 58.8763 57.1613 59.4832 56.5554C60.0902 55.9495 60.5718 55.2299 60.9007 54.4378C61.2295 53.6458 61.3992 52.7967 61.3999 51.939C61.3999 48.3373 58.4741 45.417 54.8637 45.417C51.2554 45.417 48.3285 48.3373 48.3285 51.939Z" fill="#307172"/>
<path d="M12.6066 33.6657L16.2827 23.1996C16.9958 21.2265 18.3652 19.6865 22.2305 19.6865H39.2011C43.0653 19.6865 44.4369 21.2265 45.1467 23.1996L48.8217 33.6657C49.0963 34.3417 49.2384 35.8609 47.7433 36.8781L39.1016 42.5721C38.4956 42.9717 37.7559 43.1147 37.0446 42.9697C36.3334 42.8248 35.7086 42.4037 35.3074 41.7989C35.1094 41.4986 34.9726 41.1623 34.9047 40.8092C34.8367 40.456 34.839 40.093 34.9115 39.7407C34.9839 39.3885 35.125 39.054 35.3267 38.7563C35.5285 38.4586 35.7869 38.2035 36.0872 38.0057L42.9461 33.4853L41.0156 28.1598H38.3436L39.9088 32.4801L34.7014 35.9123C34.125 36.2898 33.6293 36.778 33.2431 37.3486C32.8569 37.9192 32.5878 38.5608 32.4516 39.2362C32.3101 39.9113 32.3042 40.6078 32.4341 41.2853C32.5641 41.9627 32.8273 42.6076 33.2084 43.1825C33.514 43.6382 33.889 44.0434 34.3197 44.3834H27.1097C27.5397 44.0423 27.9148 43.6373 28.222 43.1825C28.603 42.6075 28.8663 41.9627 28.9966 41.2853C29.1269 40.608 29.1216 39.9115 28.9811 39.2362C28.844 38.561 28.5745 37.9196 28.1881 37.3491C27.8018 36.7786 27.3063 36.2903 26.7302 35.9123L21.5195 32.4801L23.0913 28.1598H20.417L18.4822 33.4853L25.3444 38.0057C26.6055 38.837 26.9577 40.54 26.1231 41.7989C25.2886 43.0578 23.5889 43.4056 22.3278 42.5721L13.6872 36.8781C12.1909 35.8598 12.332 34.3417 12.6055 33.6657H12.6066Z" fill="#307172"/>
<path d="M29.0271 9.44336C29.2337 9.89158 29.5643 10.2712 29.9799 10.5374C30.3955 10.8035 30.8786 10.945 31.3721 10.9451C31.8664 10.9453 32.3504 10.8039 32.7669 10.5378C33.1834 10.2717 33.515 9.89193 33.7226 9.44336H38.4564C38.5329 9.85898 38.5778 10.2845 38.5778 10.723C38.5763 12.6395 37.8138 14.477 36.4578 15.8313C35.1018 17.1856 33.2635 17.9459 31.347 17.9451C30.3979 17.9458 29.458 17.7596 28.5809 17.397C27.7038 17.0344 26.9067 16.5026 26.2351 15.832C25.5636 15.1614 25.0307 14.365 24.667 13.4884C24.3032 12.6118 24.1157 11.6721 24.1151 10.723C24.1151 10.2834 24.1621 9.85898 24.2354 9.44336H29.026H29.0271Z" fill="#307172"/>
<path d="M33.8822 7.7384C33.741 7.1796 33.4175 6.68386 32.9629 6.32965C32.5082 5.97543 31.9484 5.78299 31.372 5.78277C30.1623 5.78277 29.1419 6.6184 28.8663 7.7384H24.7647C25.3389 6.47452 26.2648 5.40266 27.4318 4.6509C28.5988 3.89914 29.9576 3.49925 31.3458 3.49902C32.7339 3.49952 34.0926 3.89952 35.2595 4.65125C36.4265 5.40298 37.3525 6.47468 37.9269 7.7384H33.8811H33.8822Z" fill="#307172"/>
</svg>
