<svg width="73" height="73" viewBox="0 0 73 73" fill="none" xmlns="http://www.w3.org/2000/svg">
<g clip-path="url(#clip0_11_248)" filter="url(#filter0_d_11_248)">
<path d="M27.3567 7.46961L23.2969 11.5294L18.5817 6.81148L22.5033 2.88981L19.6135 -0.00268555L4 15.6109L6.88979 18.5006L10.8115 14.579L15.5294 19.2969L11.4696 23.3567L46.5696 58.4567L61.1919 58.7925L67.3912 64.9919L70.2458 64.6832L62.7762 57.2136L62.4404 42.5913L27.3567 7.46961ZM27.3567 12.0954L45.1883 29.9271L33.9542 41.1613L29.415 36.6275L35.0483 30.9942L32.665 28.6109L27.0317 34.2442L22.8337 30.0463L28.4671 24.4129L26.0837 22.0296L20.4504 27.6629L16.1333 23.3459L27.3567 12.0954Z" fill="#307172"/>
</g>
<defs>
<filter id="filter0_d_11_248" x="0" y="0" width="73" height="73" filterUnits="userSpaceOnUse" color-interpolation-filters="sRGB">
<feFlood flood-opacity="0" result="BackgroundImageFix"/>
<feColorMatrix in="SourceAlpha" type="matrix" values="0 0 0 0 0 0 0 0 0 0 0 0 0 0 0 0 0 0 127 0" result="hardAlpha"/>
<feOffset dy="4"/>
<feGaussianBlur stdDeviation="2"/>
<feComposite in2="hardAlpha" operator="out"/>
<feColorMatrix type="matrix" values="0 0 0 0 0 0 0 0 0 0 0 0 0 0 0 0 0 0 0.25 0"/>
<feBlend mode="normal" in2="BackgroundImageFix" result="effect1_dropShadow_11_248"/>
<feBlend mode="normal" in="SourceGraphic" in2="effect1_dropShadow_11_248" result="shape"/>
</filter>
<clipPath id="clip0_11_248">
<rect width="65" height="65" fill="white" transform="translate(4)"/>
</clipPath>
</defs>
</svg>
