<svg width="64" height="64" viewBox="0 0 64 64" fill="none" xmlns="http://www.w3.org/2000/svg">
<path d="M0.663086 40.71H52.2021V44.767H0.663086V40.71Z" fill="#307172"/>
<path d="M38.9621 51.6649C38.9621 48.9609 27.0571 49.2319 27.0571 51.7009V60.8519C26.9381 62.1119 27.8531 63.3479 29.1181 63.3479L61.0061 63.3499C61.3072 63.3503 61.6055 63.2913 61.8838 63.1763C62.1621 63.0612 62.415 62.8924 62.628 62.6796C62.841 62.4667 63.0099 62.2138 63.125 61.9356C63.2402 61.6573 63.2993 61.3591 63.2991 61.0579L63.3021 32.0839C63.3021 13.8779 47.6751 -0.755079 29.1251 0.931921C28.5192 0.987242 27.9601 1.28075 27.5705 1.74799C27.1809 2.21523 26.9926 2.81799 27.0471 3.42392V13.2839H38.9621V6.29992C50.3511 9.35392 58.7121 19.7519 58.7161 32.0749C58.6751 44.3899 50.3561 54.8359 38.9621 57.8739V51.6629V51.6649Z" fill="#307172"/>
<path d="M42.9771 32.154C42.9768 31.4798 43.1094 30.8122 43.3672 30.1892C43.6251 29.5663 44.0031 29.0003 44.4798 28.5235C44.9565 28.0467 45.5225 27.6685 46.1453 27.4106C46.7682 27.1526 47.4359 27.0199 48.1101 27.02C49.4719 27.0205 50.7778 27.5615 51.7412 28.5241C52.7045 29.4867 53.2465 30.7922 53.2481 32.154C53.2451 33.5156 52.7028 34.8206 51.7398 35.7832C50.7768 36.7458 49.4717 37.2876 48.1101 37.29C46.7487 37.2882 45.4438 36.7464 44.4815 35.7835C43.5191 34.8206 42.9781 33.5153 42.9771 32.154Z" fill="#307172"/>
<path d="M36.4121 26.8401H19.2111L0.62207 29.6851V37.2831L14.1431 37.2851C13.716 36.6051 13.4881 35.819 13.4851 35.0161C13.4869 33.8647 13.9452 32.7609 14.7595 31.9468C15.5738 31.1327 16.6776 30.6747 17.8291 30.6731H27.2501L34.8851 29.0781L35.3101 31.1051L27.4641 32.7431H17.8291C17.5308 32.7411 17.2351 32.7979 16.9589 32.9102C16.6826 33.0225 16.4311 33.1882 16.2188 33.3976C15.7901 33.8207 15.547 34.3968 15.5431 34.9991C15.5391 35.6014 15.7745 36.1806 16.1976 36.6093C16.6207 37.038 17.1968 37.2811 17.7991 37.2851L36.4491 37.2881C39.3351 37.2651 41.6491 34.9421 41.6491 32.0711C41.6492 31.3835 41.5138 30.7027 41.2505 30.0675C40.9872 29.4323 40.6013 28.8553 40.1148 28.3694C39.6283 27.8836 39.0507 27.4984 38.4152 27.236C37.7797 26.9736 37.0986 26.839 36.4111 26.8401H36.4121Z" fill="#307172"/>
</svg>
