<svg width="70" height="70" viewBox="0 0 70 70" fill="none" xmlns="http://www.w3.org/2000/svg">
<path fill-rule="evenodd" clip-rule="evenodd" d="M45.7202 13.6004L45.64 13.2504C45.4868 12.6 45.236 11.6433 44.7183 10.7012C44.1904 9.74164 43.3723 8.76893 42.0889 8.12872C40.81 7.49143 39.2073 7.25372 37.2254 7.51622C35.0379 7.80789 30.6439 8.53122 26.7619 10.5058C22.8579 12.4921 19.2004 15.9089 19.2004 21.5993C19.2004 24.5393 20.3379 27.6937 21.4404 29.75C21.9698 30.7387 22.5983 31.6837 23.2283 32.1927C23.3727 32.3093 23.5783 32.4552 23.8335 32.5573C24.5336 34.8579 25.9271 36.8861 27.8236 38.3647C29.72 39.8433 32.0269 40.7 34.4288 40.8178C36.8307 40.9356 39.2103 40.3086 41.2423 39.0227C43.2744 37.7368 44.8597 35.8546 45.7814 33.6335L45.8164 33.6393L46.3341 33.0108L45.2083 32.0833L46.3341 33.0108L46.3356 33.0079L46.3385 33.005L46.3458 32.9948L46.3706 32.9656C46.4954 32.8103 46.6155 32.6512 46.7308 32.4887C47.0457 32.052 47.3425 31.6024 47.6204 31.1412C48.3058 30.0066 49.1327 28.3908 49.6621 26.5052C50.19 24.6196 50.4321 22.4087 49.8779 20.1279C49.3383 17.9083 48.0652 15.7237 45.7596 13.7725L45.7202 13.6004ZM43.2702 32.0308C42.6377 33.8497 41.4231 35.4093 39.8146 36.468C38.206 37.5268 36.2932 38.0256 34.3725 37.8872C32.4517 37.7489 30.6302 36.9811 29.19 35.7027C27.7498 34.4243 26.7713 32.7068 26.406 30.816L26.2412 30.8714C26.247 30.7889 26.25 30.7062 26.25 30.6235C26.25 28.21 26.5854 26.5256 26.8975 25.4756C26.9584 25.2712 27.026 25.0689 27.1002 24.8689L27.16 24.8718H27.2183C28.3088 24.8954 29.399 24.8124 30.4733 24.6239C32.9773 24.201 36.3679 23.1452 40.3608 20.6996C40.4483 20.895 40.5358 21.1152 40.6233 21.3602C40.9091 22.1696 41.1439 23.1306 41.3466 24.1456C41.526 25.0396 41.6733 25.9393 41.8133 26.7823L41.8673 27.1148C42.0175 28.0189 42.1677 28.9071 42.3427 29.5502C42.6489 30.6673 42.961 31.4606 43.2702 32.0293V32.0308ZM45.3118 29.3139C45.8616 28.3573 46.4625 27.1118 46.8518 25.7191C47.2879 24.1646 47.4483 22.4816 47.0429 20.8177C46.6491 19.1989 45.6969 17.4971 43.7383 15.8841C43.3854 15.645 43.225 15.3241 43.1812 15.2381V15.2366C43.1046 15.079 43.0431 14.9144 42.9975 14.7452C42.9508 14.5789 42.8998 14.3514 42.8516 14.1473L42.8006 13.9183C42.6621 13.3306 42.4827 12.6904 42.1618 12.1056C41.8498 11.5398 41.4225 11.0556 40.7866 10.7391C40.1479 10.4198 39.1591 10.201 37.6104 10.4081C35.4914 10.6896 31.5058 11.3648 28.0846 13.106C24.6866 14.8341 22.1171 17.4504 22.1171 21.5993C22.1171 23.5098 22.7587 25.6827 23.5316 27.3962C23.6775 26.2791 23.8875 25.3662 24.1033 24.6429C24.2538 24.1259 24.4414 23.6205 24.6648 23.1306C24.749 22.949 24.8414 22.7714 24.9419 22.5983L24.9666 22.5589L24.9754 22.5443L24.9798 22.5371L24.9827 22.5327L26.2077 23.3202L24.9827 22.5327L25.5223 21.6956L26.4877 21.8896L26.5081 21.8939L26.6496 21.9129C26.8666 21.9371 27.0846 21.9517 27.3029 21.9566C28.202 21.974 29.1007 21.9037 29.9862 21.7466C32.3385 21.35 35.7948 20.2693 39.9933 17.4737L41.0141 16.7927L41.8585 17.6823C42.5541 18.4143 43.0266 19.4133 43.3723 20.386C43.7252 21.385 43.9921 22.5006 44.2064 23.571C44.396 24.5189 44.5535 25.4712 44.6906 26.3127L44.746 26.6393C44.9021 27.5887 45.0289 28.3135 45.1573 28.7831C45.2098 28.9756 45.2608 29.1535 45.3118 29.3139ZM25.0687 29.9293L25.0629 29.9264L25.0687 29.9293ZM25.0629 29.9264L25.0687 29.9293L25.0644 29.9264H25.0629Z" fill="#307172"/>
<path fill-rule="evenodd" clip-rule="evenodd" d="M43.8754 42.0802C44.1846 41.4648 44.5652 40.705 45.2083 40.8523C53.0892 42.646 61.25 47.8246 61.25 53.3312V61.25H8.75V53.3312C8.75 48.9942 13.8133 44.8598 19.8144 42.4229L19.8217 42.4083C19.8283 42.3951 19.8351 42.382 19.8421 42.369L19.8902 42.3923C21.4842 41.7506 23.1437 41.2256 24.7917 40.8523C25.5252 40.6846 26.2835 41.6937 26.6146 42.3252H43.75C43.7908 42.2494 43.8317 42.1648 43.8754 42.0802ZM24.204 44.0052C23.5667 44.1817 22.9323 44.38 22.3067 44.5987C22.2892 45.0975 22.3271 45.6867 22.4088 46.2875C22.4919 46.9096 22.6245 47.524 22.8054 48.125H24.7917C25.0624 48.1251 25.3278 48.2007 25.5581 48.3431C25.7883 48.4855 25.9744 48.6893 26.0954 48.9315L27.5537 51.8481C27.6552 52.0505 27.7081 52.2736 27.7083 52.5V55.4167C27.7083 55.8034 27.5547 56.1744 27.2812 56.4479C27.0077 56.7213 26.6368 56.875 26.25 56.875H23.3333V53.9583H24.7917V52.8442L23.8904 51.0417H19.8596L18.9583 52.8442V53.9583H20.4167V56.875H17.5C17.1132 56.875 16.7423 56.7213 16.4688 56.4479C16.1953 56.1744 16.0417 55.8034 16.0417 55.4167V52.5C16.0419 52.2736 16.0948 52.0505 16.1962 51.8481L17.6546 48.9315C17.7756 48.6893 17.9617 48.4855 18.1919 48.3431C18.4222 48.2007 18.6876 48.1251 18.9583 48.125H19.7838C19.6036 47.3532 19.4827 46.5688 19.4221 45.7785C18.0002 46.4508 16.679 47.2223 15.5342 48.0564C12.7313 50.101 11.6667 52.0144 11.6667 53.3312V58.3333H58.3333V53.3312C58.3333 52.0144 57.2687 50.101 54.4658 48.0564C53.0571 47.0283 51.3756 46.0979 49.5731 45.3279C49.5542 45.78 49.5104 46.2379 49.4506 46.6812C49.35 47.4104 49.1998 48.1367 49.0175 48.7608L49.0058 48.8017C49.8777 49.3532 50.5266 50.1951 50.8379 51.1787C51.1492 52.1623 51.1029 53.2242 50.7072 54.177C50.3115 55.1297 49.5919 55.912 48.6754 56.3856C47.7589 56.8592 46.7044 56.9938 45.6984 56.7654C44.6923 56.537 43.7993 55.9605 43.1771 55.1375C42.5549 54.3146 42.2435 53.2983 42.2979 52.2681C42.3524 51.2379 42.7691 50.26 43.4746 49.5073C44.18 48.7545 45.1288 48.2752 46.1533 48.1542C46.3397 47.544 46.4762 46.9197 46.5617 46.2875C46.6429 45.7221 46.6765 45.1508 46.6623 44.5798C46.6579 44.4573 46.6492 44.3494 46.6404 44.2531C46.4654 44.1992 46.2904 44.1467 46.1154 44.0971L45.5102 45.2433H24.8544L24.204 44.0067V44.0052ZM46.6667 53.9817C45.8821 53.9817 45.2083 53.34 45.2083 52.5015C45.2083 51.6644 45.8821 51.0212 46.6667 51.0212C47.4513 51.0212 48.125 51.6629 48.125 52.5015C48.125 53.3385 47.4513 53.9817 46.6667 53.9817Z" fill="#307172"/>
</svg>
